# xmcd CD database file
#
# Track frame offsets:
#	150
#	16956
#	38192
#	57934
#	76172
#	94117
#	111146
#	130051
#	142887
#	163369
#	177331
#	191519
#	215581
#	235980
#
# Disc length: 3426 seconds
#
# Revision: 1
# Processed by: cddbd v1.5.2PL0 Copyright (c) Steve Scherf et al.
# Submitted via: CDex 2.09
#
DISCID=bc0d600e
DTITLE=Various Artist - Emozioni In Musica-Emozioni D'autore
DYEAR=1997
DGENRE=Italiani
TTITLE0=Lucio Battisti - Mi Ritorni In Mente
TTITLE1=Vasco Rossi - Vita Spericolata
TTITLE2=Lucio Dalla - L'anno Che Verra'
TTITLE3=Cristiano De Andre' - Dietro La Porta
TTITLE4=Luca Barbarossa - Via Margutta
TTITLE5=Antonello Venditti - Le Tue Mani Su Di Me
TTITLE6=Grazia Di Michele - Le Ragazze Di Gauguin
TTITLE7=Luigi Tenco - Mi Sono Innamorato Di Te
TTITLE8=Ron - Il Mondo Avra' Una Grande Anima
TTITLE9=Gino Paoli - Ieri Ho Incontrato Mia Madre
TTITLE10=Francesco De Gregori - Niente Da Capire
TTITLE11=Ivano Fossati - La Costruzione Di Un Amore
TTITLE12=Paolo Conte - Onda Su Onda
TTITLE13=Mario Venuti - Fortuna
EXTD=YEAR: 1997
EXTT0=
EXTT1=
EXTT2=
EXTT3=
EXTT4=
EXTT5=
EXTT6=
EXTT7=
EXTT8=
EXTT9=
EXTT10=
EXTT11=
EXTT12=
EXTT13=
PLAYORDER=
